<?xml version="1.0" encoding="UTF-8" standalone="no"?>
<!DOCTYPE svg PUBLIC "-//W3C//DTD SVG 1.1//EN" "http://www.w3.org/Graphics/SVG/1.1/DTD/svg11.dtd">
<svg width="100%" height="100%" viewBox="0 0 176 84" version="1.1" xmlns="http://www.w3.org/2000/svg" xmlns:xlink="http://www.w3.org/1999/xlink" xml:space="preserve" xmlns:serif="http://www.serif.com/" style="fill-rule:evenodd;clip-rule:evenodd;stroke-linejoin:round;stroke-miterlimit:2;">
    <g transform="matrix(1,0,0,1,-1080.003,-176.361)">
        <g>
            <path d="M1093.262,180.781L1242.563,180.781L1242.563,185.201L1246.982,185.201L1246.982,189.621L1251.402,189.621L1251.402,229.049L1246.982,229.049L1246.982,233.469L1242.563,233.469L1242.563,237.889L1110.941,237.889L1110.941,242.308L1106.522,242.308L1106.522,246.728L1102.102,246.728L1102.102,251.148L1097.682,251.148L1097.682,237.889L1093.262,237.889L1093.262,233.469L1088.843,233.469L1088.843,229.049L1084.423,229.049L1084.423,189.621L1088.843,189.621L1088.843,185.201L1093.262,185.201L1093.262,180.781Z" style="fill:white;fill-rule:nonzero;"/>
            <rect x="1088.843" y="180.781" width="4.42" height="4.42" style="fill:rgb(0,6,0);"/>
            <rect x="1084.423" y="185.201" width="4.42" height="4.42" style="fill:rgb(0,6,0);"/>
            <rect x="1088.843" y="233.469" width="4.42" height="4.42" style="fill:rgb(0,6,0);"/>
            <rect x="1093.262" y="237.889" width="4.42" height="4.42" style="fill:rgb(0,6,0);"/>
            <rect x="1093.262" y="242.308" width="4.42" height="4.42" style="fill:rgb(0,6,0);"/>
            <rect x="1093.262" y="246.728" width="4.42" height="4.42" style="fill:rgb(0,6,0);"/>
            <rect x="1093.262" y="251.148" width="4.42" height="4.42" style="fill:rgb(0,6,0);"/>
            <rect x="1093.262" y="255.568" width="4.42" height="4.42" style="fill:rgb(0,6,0);"/>
            <rect x="1097.682" y="251.148" width="4.42" height="4.42" style="fill:rgb(0,6,0);"/>
            <rect x="1102.102" y="246.728" width="4.42" height="4.42" style="fill:rgb(0,6,0);"/>
            <rect x="1106.522" y="242.308" width="4.42" height="4.42" style="fill:rgb(0,6,0);"/>
            <rect x="1084.423" y="229.049" width="4.42" height="4.42" style="fill:rgb(0,6,0);"/>
            <rect x="1080.003" y="189.621" width="4.42" height="39.428" style="fill:rgb(0,6,0);"/>
            <rect x="1097.682" y="246.728" width="4.42" height="4.42" style="fill:rgb(196,197,214);"/>
            <rect x="1102.102" y="242.308" width="4.42" height="4.42" style="fill:rgb(196,197,214);"/>
            <rect x="1106.522" y="237.889" width="4.42" height="4.42" style="fill:rgb(196,197,214);"/>
            <g>
                <rect x="1110.941" y="233.469" width="131.621" height="4.42" style="fill:rgb(196,197,214);"/>
            </g>
            <path d="M1242.563,237.889L1110.941,237.889L1110.941,242.308L1242.563,242.308L1242.563,237.889Z" style="fill:rgb(0,6,0);fill-rule:nonzero;"/>
            <rect x="1242.563" y="233.469" width="4.42" height="4.42" style="fill:rgb(0,6,0);"/>
            <rect x="1246.982" y="229.049" width="4.42" height="4.42" style="fill:rgb(0,6,0);"/>
            <rect x="1242.563" y="229.049" width="4.42" height="4.42" style="fill:rgb(196,197,214);"/>
            <rect x="1246.982" y="224.629" width="4.42" height="4.42" style="fill:rgb(196,197,214);"/>
            <rect x="1242.563" y="180.781" width="4.42" height="4.42" style="fill:rgb(0,6,0);"/>
            <path d="M1093.262,176.361L1093.262,180.781L1242.563,180.781L1242.563,176.361L1093.262,176.361Z" style="fill:rgb(0,6,0);fill-rule:nonzero;"/>
            <rect x="1246.982" y="185.201" width="4.42" height="4.42" style="fill:rgb(0,6,0);"/>
            <rect x="1251.402" y="189.621" width="4.42" height="39.428" style="fill:rgb(0,6,0);"/>
        </g>
        <g>
            <path d="M1109.385,219.721L1109.385,198.461L1113.637,198.461L1113.637,206.965L1122.141,206.965L1122.141,198.461L1126.393,198.461L1126.393,219.721L1122.141,219.721L1122.141,211.217L1113.637,211.217L1113.637,219.721L1109.385,219.721Z" style="fill-rule:nonzero;"/>
            <path d="M1147.652,202.713L1139.148,202.713L1139.148,206.965L1147.652,206.965L1147.652,211.217L1139.148,211.217L1139.148,215.469L1147.652,215.469L1147.652,219.721L1134.896,219.721L1134.896,198.461L1147.652,198.461L1147.652,202.713Z" style="fill-rule:nonzero;"/>
            <path d="M1160.408,215.469L1168.912,215.469L1168.912,219.721L1156.156,219.721L1156.156,198.461L1160.408,198.461L1160.408,215.469Z" style="fill-rule:nonzero;"/>
            <path d="M1181.668,215.469L1190.172,215.469L1190.172,219.721L1177.416,219.721L1177.416,198.461L1181.668,198.461L1181.668,215.469Z" style="fill-rule:nonzero;"/>
            <path d="M1202.928,215.469L1198.676,215.469L1198.676,202.713L1202.928,202.713L1202.928,215.469ZM1211.432,202.713L1202.928,202.713L1202.928,198.461L1211.432,198.461L1211.432,202.713ZM1211.432,219.721L1202.928,219.721L1202.928,215.469L1211.432,215.469L1211.432,219.721ZM1215.684,215.469L1211.432,215.469L1211.432,202.713L1215.684,202.713L1215.684,215.469Z" style="fill-rule:nonzero;"/>
            <path d="M1224.188,211.217L1224.188,198.461L1228.44,198.461L1228.44,211.217L1224.188,211.217ZM1224.188,215.469L1228.44,215.469L1228.44,219.721L1224.188,219.721L1224.188,215.469Z" style="fill-rule:nonzero;"/>
        </g>
    </g>
</svg>
