<svg width="200" height="200" viewBox="0 0 200 200" fill="none" xmlns="http://www.w3.org/2000/svg">
<rect width="200" height="200" rx="100" fill="#020106"/>
<g style="mix-blend-mode:exclusion">
<path d="M63.313 155.239V139.669H47.743V92.613H32V75.313H47.743V44H65.043V75.313H112.445V92.613H65.043V137.939H110.715V122.196H128.188V139.669H112.445V155.239H63.313Z" fill="white"/>
</g>
<g style="mix-blend-mode:exclusion">
<path d="M128.02 89.243V47.663H161.59V55.853H169.87V89.243H160.69V56.663H137.11V89.243H128.02Z" fill="white"/>
</g>
<g style="mix-blend-mode:exclusion">
<path d="M67.313 151.239V135.669H51.743V88.613H36V71.313H51.743V40H69.043V71.313H116.445V88.613H69.043V133.939H114.715V118.196H132.188V135.669H116.445V151.239H67.313Z" fill="#5515FE"/>
</g>
<g style="mix-blend-mode:exclusion">
<path d="M132.02 85.243V43.663H165.59V51.853H173.87V85.243H164.69V52.663H141.11V85.243H132.02Z" fill="#5515FE"/>
</g>
<g style="mix-blend-mode:exclusion">
<path d="M58.313 160.239V144.669H42.743V97.613H27V80.313H42.743V49H60.043V80.313H107.445V97.613H60.043V142.939H105.715V127.196H123.188V144.669H107.445V160.239H58.313Z" fill="#FA0AED"/>
</g>
<g style="mix-blend-mode:exclusion">
<path d="M123.02 94.243V52.663H156.59V60.853H164.87V94.243H155.69V61.663H132.11V94.243H123.02Z" fill="#FA0AED"/>
</g>
</svg>
