<svg xmlns="http://www.w3.org/2000/svg" width="391" height="391" viewBox="0 0 391 391">
  <g id="emblem" transform="translate(-1717 -1568)">
    <path id="Path_15" data-name="Path 15" d="M195.5,0C303.472,0,391,87.528,391,195.5S303.472,391,195.5,391,0,303.472,0,195.5,87.528,0,195.5,0Z" transform="translate(1717 1568)" fill="#8bc75a"/>
    <circle id="Ellipse_15" data-name="Ellipse 15" cx="178.5" cy="178.5" r="178.5" transform="translate(1734 1585)" fill="#070a4e"/>
    <g id="Group_16" data-name="Group 16" transform="translate(1794 1634.437)">
      <path id="Path_11" data-name="Path 11" d="M.374-23.018a8.13,8.13,0,0,1-5.982-2.43,8.13,8.13,0,0,1-2.43-5.982v-80.2a8.444,8.444,0,0,1,2.43-6.075,7.978,7.978,0,0,1,5.982-2.524A8.282,8.282,0,0,1,6.449-117.7a8.282,8.282,0,0,1,2.524,6.075v7.664A62.139,62.139,0,0,1,24.3-116.487q8.225-4.673,19.441-4.673A32.323,32.323,0,0,1,61.6-116.3a31.6,31.6,0,0,1,11.59,13.273A42.371,42.371,0,0,1,77.2-84.52v53.09a7.978,7.978,0,0,1-2.524,5.982,8.444,8.444,0,0,1-6.075,2.43,8.13,8.13,0,0,1-5.982-2.43,8.13,8.13,0,0,1-2.43-5.982V-82.651q0-22.806-20.563-22.806A29.749,29.749,0,0,0,22.9-100.6,60.559,60.559,0,0,0,8.973-87.511V-31.43a7.978,7.978,0,0,1-2.524,5.982A8.444,8.444,0,0,1,.374-23.018Z" transform="translate(160.534 120.723)" fill="#8bc75a"/>
      <path id="Path_10" data-name="Path 10" d="M-12.062,117.856q-61.223,0-61.223-55.352V-67.489h-29.773a7.7,7.7,0,0,1-5.661-2.306,7.7,7.7,0,0,1-2.306-5.661,8.768,8.768,0,0,1,3.774-7.129l57.029-55.771q3.774-3.774,7.129-3.774a7.382,7.382,0,0,1,5.661,2.516,8.415,8.415,0,0,1,2.306,5.871V-100.2H12.259A15.9,15.9,0,0,1,24-95.584a15.9,15.9,0,0,1,4.613,11.741A16.1,16.1,0,0,1,24-72.311a15.544,15.544,0,0,1-11.741,4.822H-35.125V59.15q0,16.354,7.758,20.757t19.5,4.4A58.113,58.113,0,0,0,8.9,81.794q1.677-.419,3.564-.839a22.851,22.851,0,0,1,4.822-.419,14.779,14.779,0,0,1,10.483,4.4,14.231,14.231,0,0,1,4.613,10.693q0,9.645-9.645,14.677A82.061,82.061,0,0,1-12.062,117.856Z" transform="translate(111.024 141.693)" fill="#8bc75a"/>
    </g>
  </g>
</svg>
